# xmcd
#
# Track frame offsets: 
#        150
#        14429
#        29755
#        49172
#        66698
#        90998
#        109199
#        120438
#        148646
#        166801
#        193987
#        206353
#        226499
#        250269
#
# Disc length: 3455 seconds
#
# Revision: 1
# Processed by: cddbd v1.5.2PL0 Copyright (c) Steve Scherf et al.
# Submitted via: ExactAudioCopy v1.0b4
#
DISCID=c80d7d0e
DTITLE=Nick Moss Band - From The Root To The Fruit  disc 1
DYEAR=2016
DGENRE=Blues-Rock
TTITLE0=Before The Night Is Through
TTITLE1=Make Way For Me
TTITLE2=Dead Man's Hand
TTITLE3=From The Root To The Fruit
TTITLE4=Haymarket Hop
TTITLE5=Symone
TTITLE6=Love Me
TTITLE7=Lost and Found
TTITLE8=I Dig
TTITLE9=Rump Rash
TTITLE10=Long Tall Woman
TTITLE11=The Woman I Love
TTITLE12=Walk Away
TTITLE13=Cold Sore
EXTD=
EXTT0=
EXTT1=
EXTT2=
EXTT3=
EXTT4=
EXTT5=
EXTT6=
EXTT7=
EXTT8=
EXTT9=
EXTT10=
EXTT11=
EXTT12=
EXTT13=
PLAYORDER=
